<svg width="56" height="56" viewBox="0 0 331 198" fill="none" xmlns="http://www.w3.org/2000/svg">
<path d="M135.444 62.5L78.2404 84.1315C77.4017 84.4487 77.372 85.6242 78.1937 85.9832L135.444 111M196.444 63L252.205 84.1507C253.035 84.4657 253.073 85.6261 252.265 85.9952L196.444 111.5M177.944 52L157.444 120M317.861 177.768L315.22 182.643C314.434 184.095 312.915 185 311.263 185H20.8756C19.3737 185 17.9707 184.251 17.1355 183.002L13.7622 177.96C12.0993 175.475 13.2783 172.089 16.1252 171.174L37.772 164.216C38.217 164.073 38.6816 164 39.1491 164H291.738C292.206 164 292.67 164.073 293.115 164.216L315.281 171.341C317.964 172.203 319.203 175.29 317.861 177.768ZM45.9437 168H286.944C290.81 168 293.944 164.866 293.944 161V20C293.944 16.134 290.81 13 286.944 13H45.9437C42.0777 13 38.9437 16.134 38.9437 20V161C38.9437 164.866 42.0777 168 45.9437 168Z" stroke="#01ab20" stroke-width="24.5"/>
</svg>
