<svg width="56" height="56" viewBox="0 0 348 348" fill="none" xmlns="http://www.w3.org/2000/svg">
<path d="M38 146.5C37.2002 173.182 40.2663 188.562 47 208.66M309 146.5C309.618 173.122 306.332 188.516 299.235 208.66M174.5 301.605V348M174.5 301.605C144.135 302.178 113.704 292.352 89.2589 272M174.5 301.605C226.256 300.628 277.821 269.439 299.235 208.66M262.5 272L299.235 301.605M89.2589 272L56 301.605M89.2589 272C70.9849 256.786 56.0559 235.69 47 208.66M47 208.66L6 218.5M299.235 208.66H348" stroke="#01ab20" stroke-width="47"/>
<path d="M100.63 153C100.212 166.882 102.036 179.046 105.559 189.503M242.888 153C243.211 166.851 241.231 179.023 237.518 189.503M172.262 237.861V268M172.262 237.861C156.376 238.159 140.455 233.047 127.667 222.458M172.262 237.861C199.338 237.353 226.315 221.126 237.518 189.503M218.3 222.458L239.749 241.189M127.667 222.458L105.559 249M127.667 222.458C118.107 214.543 110.296 203.567 105.559 189.503M105.559 189.503L72 197.5M237.518 189.503H274.5" stroke="#01ab20" stroke-width="36.5"/>
<mask id="path-3-inside-1_888_585" fill="white">
<path fill-rule="evenodd" clip-rule="evenodd" d="M87.5386 4.5957C109.779 4.5957 127.809 17.8598 127.809 34.2218C127.809 50.5839 109.779 63.8479 87.5386 63.8479C65.298 63.8479 47.2686 50.5839 47.2686 34.2218C47.2686 17.8598 65.298 4.5957 87.5386 4.5957ZM161.949 107.533C165.997 114.722 168.08 122.427 168.08 130.208H87.54L7 130.208C7 122.427 9.08323 114.722 13.1307 107.533C17.1783 100.344 23.1108 93.8126 30.5896 88.3105C38.0684 82.8084 46.9471 78.4439 56.7187 75.4662C66.4902 72.4885 76.9633 70.9559 87.54 70.9559C98.1167 70.9559 108.59 72.4885 118.361 75.4662C128.133 78.4439 137.012 82.8084 144.49 88.3105C151.969 93.8126 157.902 100.344 161.949 107.533Z"/>
</mask>
<path fill-rule="evenodd" clip-rule="evenodd" d="M87.5386 4.5957C109.779 4.5957 127.809 17.8598 127.809 34.2218C127.809 50.5839 109.779 63.8479 87.5386 63.8479C65.298 63.8479 47.2686 50.5839 47.2686 34.2218C47.2686 17.8598 65.298 4.5957 87.5386 4.5957ZM161.949 107.533C165.997 114.722 168.08 122.427 168.08 130.208H87.54L7 130.208C7 122.427 9.08323 114.722 13.1307 107.533C17.1783 100.344 23.1108 93.8126 30.5896 88.3105C38.0684 82.8084 46.9471 78.4439 56.7187 75.4662C66.4902 72.4885 76.9633 70.9559 87.54 70.9559C98.1167 70.9559 108.59 72.4885 118.361 75.4662C128.133 78.4439 137.012 82.8084 144.49 88.3105C151.969 93.8126 157.902 100.344 161.949 107.533Z" fill="#01ab20"/>
<path d="M168.08 130.208V135.99H173.862V130.208H168.08ZM87.54 130.208L87.54 124.427L87.54 124.427L87.54 130.208ZM7 130.208H1.21839V135.99L7 135.99L7 130.208ZM13.1307 107.533L18.1687 110.37L18.1687 110.37L13.1307 107.533ZM30.5896 88.3105L27.1635 83.6534L27.1635 83.6534L30.5896 88.3105ZM56.7187 75.4662L55.0333 69.9357L55.0333 69.9357L56.7187 75.4662ZM118.361 75.4662L116.676 80.9967L116.676 80.9967L118.361 75.4662ZM144.49 88.3105L147.917 83.6534L147.917 83.6534L144.49 88.3105ZM133.59 34.2218C133.59 23.7646 127.816 14.7784 119.44 8.6159C111.061 2.45151 99.7631 -1.18591 87.5386 -1.18591V10.3773C97.5545 10.3773 106.392 13.3719 112.588 17.9301C118.786 22.4902 122.027 28.317 122.027 34.2218H133.59ZM87.5386 69.6295C99.7631 69.6295 111.061 65.9921 119.44 59.8277C127.816 53.6653 133.59 44.6791 133.59 34.2218H122.027C122.027 40.1266 118.786 45.9535 112.588 50.5135C106.392 55.0717 97.5545 58.0663 87.5386 58.0663V69.6295ZM41.4869 34.2218C41.4869 44.6791 47.2607 53.6653 55.6372 59.8277C64.0163 65.9921 75.314 69.6295 87.5386 69.6295V58.0663C77.5226 58.0663 68.6853 55.0717 62.4895 50.5136C56.2911 45.9535 53.0502 40.1266 53.0502 34.2218H41.4869ZM87.5386 -1.18591C75.314 -1.18591 64.0163 2.45151 55.6372 8.6159C47.2607 14.7784 41.4869 23.7646 41.4869 34.2218H53.0502C53.0502 28.317 56.2911 22.4902 62.4895 17.9301C68.6853 13.3719 77.5226 10.3773 87.5386 10.3773V-1.18591ZM173.862 130.208C173.862 121.373 171.492 112.697 166.987 104.697L156.911 110.37C160.502 116.747 162.298 123.481 162.298 130.208H173.862ZM87.54 135.99H168.08V124.427H87.54V135.99ZM7 135.99L87.54 135.99L87.54 124.427L7 124.427L7 135.99ZM8.09277 104.697C3.58814 112.697 1.21839 121.373 1.21839 130.208H12.7816C12.7816 123.481 14.5783 116.747 18.1687 110.37L8.09277 104.697ZM27.1635 83.6534C19.1074 89.5802 12.5901 96.7091 8.09277 104.697L18.1687 110.37C21.7664 103.98 27.1142 98.045 34.0158 92.9676L27.1635 83.6534ZM55.0333 69.9357C44.6987 73.085 35.2191 77.7269 27.1635 83.6534L34.0158 92.9676C40.9178 87.8899 49.1955 83.8029 58.404 80.9967L55.0333 69.9357ZM87.54 65.1743C76.4126 65.1743 65.3703 66.7857 55.0333 69.9357L58.404 80.9967C67.6101 78.1914 77.5141 76.7375 87.54 76.7375V65.1743ZM120.047 69.9357C109.71 66.7857 98.6674 65.1743 87.54 65.1743V76.7375C97.5659 76.7375 107.47 78.1913 116.676 80.9967L120.047 69.9357ZM147.917 83.6534C139.861 77.7269 130.381 73.085 120.047 69.9357L116.676 80.9967C125.885 83.8029 134.162 87.8899 141.064 92.9676L147.917 83.6534ZM166.987 104.697C162.49 96.7091 155.973 89.5802 147.917 83.6534L141.064 92.9676C147.966 98.045 153.314 103.98 156.911 110.37L166.987 104.697Z" fill="white" mask="url(#path-3-inside-1_888_585)"/>
<mask id="path-5-inside-2_888_585" fill="white">
<path fill-rule="evenodd" clip-rule="evenodd" d="M252.711 0C275.711 0 294.356 13.7169 294.356 30.6375C294.356 47.5582 275.711 61.2751 252.711 61.2751C229.711 61.2751 211.066 47.5582 211.066 30.6375C211.066 13.7169 229.711 0 252.711 0ZM329.659 106.45C333.845 113.885 335.999 121.853 335.999 129.899H252.71H169.42C169.42 121.853 171.574 113.885 175.76 106.45C179.946 99.0162 186.081 92.2613 193.815 86.5714C201.549 80.8815 210.731 76.368 220.836 73.2886C230.941 70.2093 241.772 68.6243 252.71 68.6243C263.647 68.6243 274.478 70.2093 284.583 73.2886C294.688 76.368 303.87 80.8815 311.604 86.5714C319.338 92.2613 325.473 99.0162 329.659 106.45Z"/>
</mask>
<path fill-rule="evenodd" clip-rule="evenodd" d="M252.711 0C275.711 0 294.356 13.7169 294.356 30.6375C294.356 47.5582 275.711 61.2751 252.711 61.2751C229.711 61.2751 211.066 47.5582 211.066 30.6375C211.066 13.7169 229.711 0 252.711 0ZM329.659 106.45C333.845 113.885 335.999 121.853 335.999 129.899H252.71H169.42C169.42 121.853 171.574 113.885 175.76 106.45C179.946 99.0162 186.081 92.2613 193.815 86.5714C201.549 80.8815 210.731 76.368 220.836 73.2886C230.941 70.2093 241.772 68.6243 252.71 68.6243C263.647 68.6243 274.478 70.2093 284.583 73.2886C294.688 76.368 303.87 80.8815 311.604 86.5714C319.338 92.2613 325.473 99.0162 329.659 106.45Z" fill="#01ab20"/>
<path d="M335.999 129.899V135.681H341.781V129.899H335.999ZM169.42 129.899H163.638V135.681H169.42V129.899ZM220.836 73.2886L222.521 78.8192L222.521 78.8192L220.836 73.2886ZM284.583 73.2886L286.268 67.7581L286.268 67.7581L284.583 73.2886ZM311.604 86.5714L315.03 81.9143L315.03 81.9143L311.604 86.5714ZM300.138 30.6375C300.138 19.901 294.21 10.6619 285.585 4.31644C276.957 -2.03099 265.315 -5.78161 252.711 -5.78161V5.78161C263.107 5.78161 272.288 8.88943 278.732 13.6306C285.18 18.3737 288.574 24.4535 288.574 30.6375H300.138ZM252.711 67.0567C265.315 67.0567 276.957 63.3061 285.585 56.9586C294.21 50.6131 300.138 41.3741 300.138 30.6375H288.574C288.574 36.8216 285.18 42.9014 278.732 47.6445C272.288 52.3856 263.107 55.4935 252.711 55.4935V67.0567ZM205.285 30.6375C205.285 41.3741 211.212 50.6131 219.838 56.9586C228.466 63.3061 240.107 67.0567 252.711 67.0567V55.4935C242.316 55.4935 233.135 52.3856 226.69 47.6445C220.243 42.9014 216.848 36.8216 216.848 30.6375H205.285ZM252.711 -5.78161C240.107 -5.78161 228.466 -2.03099 219.838 4.31644C211.212 10.6619 205.285 19.901 205.285 30.6375H216.848C216.848 24.4535 220.243 18.3737 226.69 13.6306C233.135 8.88943 242.316 5.78161 252.711 5.78161V-5.78161ZM341.781 129.899C341.781 120.799 339.34 111.86 334.697 103.614L324.621 109.287C328.35 115.909 330.218 122.907 330.218 129.899H341.781ZM252.71 135.681H335.999V124.118H252.71V135.681ZM169.42 135.681H252.71V124.118H169.42V135.681ZM170.722 103.614C166.079 111.86 163.638 120.799 163.638 129.899H175.202C175.202 122.907 177.069 115.909 180.798 109.287L170.722 103.614ZM190.389 81.9143C182.077 88.0289 175.357 95.3808 170.722 103.614L180.798 109.287C184.534 102.652 190.084 96.4937 197.241 91.2285L190.389 81.9143ZM219.151 67.7581C208.482 71.009 198.7 75.8 190.389 81.9143L197.241 91.2285C204.398 85.9629 212.979 81.7269 222.521 78.8192L219.151 67.7581ZM252.71 62.8427C241.221 62.8427 229.821 64.5064 219.151 67.7581L222.521 78.8192C232.061 75.9121 242.323 74.406 252.71 74.406V62.8427ZM286.268 67.7581C275.598 64.5064 264.198 62.8427 252.71 62.8427V74.406C263.097 74.406 273.358 75.9121 282.898 78.8191L286.268 67.7581ZM315.03 81.9143C306.719 75.8 296.937 71.009 286.268 67.7581L282.898 78.8191C292.44 81.7269 301.021 85.9629 308.178 91.2285L315.03 81.9143ZM334.697 103.614C330.062 95.3808 323.342 88.0289 315.03 81.9143L308.178 91.2285C315.335 96.4937 320.885 102.652 324.621 109.287L334.697 103.614Z" fill="white" mask="url(#path-5-inside-2_888_585)"/>
<mask id="path-7-inside-3_888_585" fill="white">
<path fill-rule="evenodd" clip-rule="evenodd" d="M168.745 27.5713C190.985 27.5713 209.015 40.8354 209.015 57.1974C209.015 73.5595 190.985 86.8235 168.745 86.8235C146.504 86.8235 128.475 73.5595 128.475 57.1974C128.475 40.8354 146.504 27.5713 168.745 27.5713ZM243.155 130.509C247.203 137.698 249.286 145.403 249.286 153.184H168.746H88.2061C88.2061 145.403 90.2893 137.698 94.3368 130.509C98.3843 123.32 104.317 116.788 111.796 111.286C119.274 105.784 128.153 101.42 137.925 98.4418C147.696 95.4641 158.169 93.9315 168.746 93.9315C179.323 93.9315 189.796 95.4641 199.567 98.4418C209.339 101.42 218.218 105.784 225.696 111.286C233.175 116.788 239.108 123.32 243.155 130.509Z"/>
</mask>
<path fill-rule="evenodd" clip-rule="evenodd" d="M168.745 27.5713C190.985 27.5713 209.015 40.8354 209.015 57.1974C209.015 73.5595 190.985 86.8235 168.745 86.8235C146.504 86.8235 128.475 73.5595 128.475 57.1974C128.475 40.8354 146.504 27.5713 168.745 27.5713ZM243.155 130.509C247.203 137.698 249.286 145.403 249.286 153.184H168.746H88.2061C88.2061 145.403 90.2893 137.698 94.3368 130.509C98.3843 123.32 104.317 116.788 111.796 111.286C119.274 105.784 128.153 101.42 137.925 98.4418C147.696 95.4641 158.169 93.9315 168.746 93.9315C179.323 93.9315 189.796 95.4641 199.567 98.4418C209.339 101.42 218.218 105.784 225.696 111.286C233.175 116.788 239.108 123.32 243.155 130.509Z" fill="#01ab20"/>
<path d="M249.286 153.184V158.965H255.068V153.184H249.286ZM88.2061 153.184H82.4244V158.965H88.2061V153.184ZM94.3368 130.509L99.3748 133.345L99.3748 133.345L94.3368 130.509ZM111.796 111.286L108.37 106.629L108.37 106.629L111.796 111.286ZM137.925 98.4418L136.239 92.9113L136.239 92.9113L137.925 98.4418ZM199.567 98.4418L197.882 103.972L197.882 103.972L199.567 98.4418ZM225.696 111.286L229.123 106.629L229.123 106.629L225.696 111.286ZM214.796 57.1974C214.796 46.7401 209.022 37.754 200.646 31.5915C192.267 25.4271 180.969 21.7897 168.745 21.7897V33.3529C178.761 33.3529 187.598 36.3475 193.794 40.9057C199.992 45.4657 203.233 51.2926 203.233 57.1974H214.796ZM168.745 92.6051C180.969 92.6051 192.267 88.9677 200.646 82.8033C209.022 76.6408 214.796 67.6547 214.796 57.1974H203.233C203.233 63.1022 199.992 68.9291 193.794 73.4891C187.598 78.0473 178.761 81.0419 168.745 81.0419V92.6051ZM122.693 57.1974C122.693 67.6547 128.467 76.6408 136.843 82.8033C145.222 88.9677 156.52 92.6051 168.745 92.6051V81.0419C158.729 81.0419 149.891 78.0473 143.696 73.4891C137.497 68.9291 134.256 63.1022 134.256 57.1974H122.693ZM168.745 21.7897C156.52 21.7897 145.222 25.4271 136.843 31.5915C128.467 37.754 122.693 46.7401 122.693 57.1974H134.256C134.256 51.2926 137.497 45.4657 143.696 40.9057C149.891 36.3475 158.729 33.3529 168.745 33.3529V21.7897ZM255.068 153.184C255.068 144.349 252.698 135.673 248.193 127.672L238.117 133.345C241.708 139.722 243.504 146.457 243.504 153.184H255.068ZM168.746 158.965H249.286V147.402H168.746V158.965ZM88.2061 158.965H168.746V147.402H88.2061V158.965ZM89.2988 127.672C84.7942 135.673 82.4244 144.349 82.4244 153.184H93.9877C93.9877 146.457 95.7844 139.722 99.3748 133.345L89.2988 127.672ZM108.37 106.629C100.313 112.556 93.7961 119.685 89.2988 127.672L99.3748 133.345C102.972 126.955 108.32 121.021 115.222 115.943L108.37 106.629ZM136.239 92.9113C125.905 96.0606 116.425 100.703 108.37 106.629L115.222 115.943C122.124 110.865 130.402 106.778 139.61 103.972L136.239 92.9113ZM168.746 88.1499C157.619 88.1499 146.576 89.7613 136.239 92.9113L139.61 103.972C148.816 101.167 158.72 99.7131 168.746 99.7131V88.1499ZM201.253 92.9113C190.916 89.7613 179.873 88.1499 168.746 88.1499V99.7131C178.772 99.7131 188.676 101.167 197.882 103.972L201.253 92.9113ZM229.123 106.629C221.067 100.703 211.587 96.0606 201.253 92.9113L197.882 103.972C207.091 106.778 215.368 110.865 222.27 115.943L229.123 106.629ZM248.193 127.672C243.696 119.685 237.179 112.556 229.123 106.629L222.27 115.943C229.172 121.021 234.52 126.955 238.117 133.345L248.193 127.672Z" fill="white" mask="url(#path-7-inside-3_888_585)"/>
</svg>
