<svg width="56" height="56" viewBox="0 0 251 154" fill="none" xmlns="http://www.w3.org/2000/svg">
<path d="M0 27.4287L124.5 0L250.5 38.5L248 39.5913V103H231V47.0119L124.5 93.5L0 27.4287Z" fill="#01ab20"/>
<path d="M34 107L34.1257 105.024V66.5235C37.6112 66.5235 32.6158 66.0941 34.1257 66.5235C36.0862 67.0812 38.15 67.8026 40.1505 68.5602C44.1767 70.0849 48.9807 72.1525 54.0892 74.4712C64.3607 79.1334 76.8689 85.2715 88.8505 91.3094C100.873 97.3682 112.544 103.416 121.197 107.943C123.435 109.114 125.473 110.184 127.266 111.128C138.544 106.006 150.742 99.9224 162.691 93.9627C166.662 91.9824 170.605 90.0158 174.478 88.1028C183.469 83.6613 192.163 79.4724 199.487 76.3748C203.147 74.8273 206.782 73.4152 210.145 72.3615C213.508 71.3078 213.5 71 213.5 73.5L214.093 112C207.908 114.616 200.495 118.192 191.529 122.621C188.004 124.362 184.307 126.207 180.499 128.107L180.496 128.109L180.482 128.115L180.478 128.117C165.429 135.626 148.662 143.991 134.036 150.214L125.564 153.818L117.441 149.485L117.544 149.292C117.441 149.485 117.441 149.485 117.441 149.485L117.439 149.484L117.428 149.478L116.455 148.961C115.803 148.614 114.842 148.104 113.612 147.454C111.152 146.153 107.621 144.292 103.35 142.057C94.7998 137.584 83.3142 131.632 71.5245 125.691C59.6936 119.729 47.7331 113.867 38.1765 109.529C33.3709 107.348 34 107 34 107C34 107 34.1257 107.303 34.1257 105.024C34.0789 105.01 34 107 34 107Z" fill="#01ab20"/>
</svg>


