<svg width="56" height="56" viewBox="0 0 248 304" fill="none" xmlns="http://www.w3.org/2000/svg">
<path fill-rule="evenodd" clip-rule="evenodd" d="M247.223 105.178C252.373 145.944 231.965 200.777 184.785 226.918C184.305 227.185 184 227.691 184 228.241V261.237C184 264.258 184 266.311 183.615 267.781C183.581 267.911 183.677 268.041 183.811 268.04V268.04C184.008 268.038 184.087 268.294 183.923 268.403L183.28 268.83C183.222 268.869 183.174 268.922 183.139 268.983C182.972 269.274 182.773 269.535 182.536 269.772C181.974 270.334 181.28 270.681 180.373 270.894C180.181 270.939 179.996 271.013 179.832 271.122L151.085 290.229C137.441 299.298 130.62 303.832 122.958 303.77C115.296 303.708 108.549 299.063 95.055 289.773L65.2936 269.284C65.11 269.158 65.1983 268.87 65.4212 268.869V268.869C65.5923 268.867 65.7028 268.685 65.6361 268.527C65.0002 267.024 65.0002 264.806 65.0002 261.237V228.319C65.0002 227.772 64.6993 227.268 64.2219 227C18.0376 201.147 -4.41871 146.949 0.721135 105.178C0.721135 48.842 61.2698 0.171609 116.499 0.171609C191.723 -3.45483 247.223 51.0096 247.223 105.178ZM163.062 118.257C163.616 118.873 163.564 119.821 162.948 120.375L129.469 150.432C129.152 150.716 128.971 151.122 128.971 151.548L128.971 216.144C128.971 216.972 128.299 217.644 127.471 217.644L115.971 217.644C115.142 217.644 114.471 216.972 114.471 216.144L114.471 151.332C114.471 150.927 114.308 150.54 114.018 150.258L83.231 120.214C82.6381 119.636 82.6264 118.686 83.205 118.093L91.2367 109.863C91.8153 109.27 92.765 109.258 93.3579 109.837L120.922 136.735C121.488 137.287 122.384 137.306 122.972 136.778L153.261 109.585C153.878 109.032 154.826 109.083 155.38 109.699L163.062 118.257ZM97.2207 245.728C97.2207 246.556 97.8923 247.228 98.7207 247.228H149.221C150.049 247.228 150.721 246.556 150.721 245.728V234.228C150.721 233.399 150.049 232.728 149.221 232.728H98.7207C97.8923 232.728 97.2207 233.399 97.2207 234.228V245.728ZM97.2207 272.728C97.2207 273.556 97.8923 274.228 98.7207 274.228H149.221C150.049 274.228 150.721 273.556 150.721 272.728V261.228C150.721 260.399 150.049 259.728 149.221 259.728H98.7207C97.8923 259.728 97.2207 260.399 97.2207 261.228V272.728Z" fill="#01ab20"/>
</svg>
